<svg width="164" height="296" viewBox="0 0 164 296" fill="none" xmlns="http://www.w3.org/2000/svg">
<path fill-rule="evenodd" clip-rule="evenodd" d="M105.523 1.07176L105.408 66.1975L105.293 131.323L99.935 116.205C99.9331 116.2 99.9265 116.18 99.9247 116.175L93.0008 261.162C99.8083 280.386 103.456 290.649 103.497 290.69C103.55 290.744 107.43 290.978 112.118 291.21C126.321 291.915 143.922 293.425 157.274 295.084C160.366 295.468 163.026 295.665 163.187 295.522C163.347 295.378 163.434 229.068 163.38 148.166L163.283 1.07176H105.523ZM1.05005 0.87793V148.121C1.05005 229.105 1.12929 295.445 1.22631 295.542C1.32332 295.639 6.33859 295.165 12.3713 294.49C18.4041 293.814 26.7418 292.974 30.8994 292.623C37.2758 292.084 56.3139 290.86 58.5184 290.847C59.1597 290.843 59.2009 287.534 59.2937 228.481L59.3919 166.119L63.9983 179.152C64.7102 181.166 64.9335 181.795 65.627 183.758L72.5491 38.8062C71.0824 34.6595 71.8513 36.8363 70.1704 32.084C64.5148 16.0933 59.7155 2.53029 59.5051 1.94398L59.1223 0.87793H1.05005Z" fill="#B1060F" stroke="black" stroke-width="0.310123"/>
<path fill-rule="evenodd" clip-rule="evenodd" d="M1.05007 0.87793V83.5299L59.2744 237.978C59.2805 234.439 59.2874 232.526 59.2938 228.481L59.3919 166.119L63.9983 179.152C89.6396 251.707 103.416 290.609 103.497 290.69C103.55 290.744 107.43 290.978 112.118 291.21C126.321 291.915 143.922 293.425 157.274 295.084C160.366 295.468 163.027 295.665 163.187 295.522C163.297 295.423 163.369 262.91 163.388 217.043L105.436 50.4309L105.408 66.1975L105.293 131.323L99.935 116.205C94.6995 101.432 91.2038 91.5531 70.1705 32.084C64.5148 16.0933 59.7155 2.53029 59.5051 1.94398L59.1223 0.87793H1.05007Z" fill="url(#paint0_radial_31_3)"/>
<path fill-rule="evenodd" clip-rule="evenodd" d="M1.05127 0.877949L59.3919 166.194V166.119L63.9983 179.152C89.6396 251.707 103.416 290.609 103.497 290.69C103.55 290.744 107.43 290.978 112.118 291.21C126.321 291.915 143.922 293.425 157.274 295.084C160.35 295.466 162.997 295.663 163.182 295.524L105.293 131.293V131.323L99.935 116.205C94.6995 101.432 91.2038 91.5531 70.1705 32.084C64.5148 16.0933 59.7155 2.53029 59.5051 1.94398L59.1223 0.87793L1.05127 0.877949Z" fill="#E50914"/>
<path fill-rule="evenodd" clip-rule="evenodd" d="M105.523 1.07176L105.408 66.1975L105.293 131.323L99.935 116.205C99.9331 116.2 99.9265 116.18 99.9247 116.175L93.0008 261.162C99.8083 280.386 103.456 290.649 103.497 290.69C103.55 290.744 107.43 290.978 112.118 291.21C126.321 291.915 143.922 293.425 157.274 295.084C160.366 295.468 163.026 295.665 163.187 295.522C163.347 295.378 163.434 229.068 163.38 148.166L163.283 1.07176H105.523ZM1.05005 0.87793V148.121C1.05005 229.105 1.12929 295.445 1.22631 295.542C1.32332 295.639 6.33859 295.165 12.3713 294.49C18.4041 293.814 26.7418 292.974 30.8994 292.623C37.2758 292.084 56.3139 290.86 58.5184 290.847C59.1597 290.843 59.2009 287.534 59.2937 228.481L59.3919 166.119L63.9983 179.152C64.7102 181.166 64.9335 181.795 65.627 183.758L72.5491 38.8062C71.0824 34.6595 71.8513 36.8363 70.1704 32.084C64.5148 16.0933 59.7155 2.53029 59.5051 1.94398L59.1223 0.87793H1.05005Z" fill="#B1060F" stroke="black" stroke-width="0.310123"/>
<path fill-rule="evenodd" clip-rule="evenodd" d="M1.05007 0.87793V83.5299L59.2744 237.978C59.2805 234.439 59.2874 232.526 59.2938 228.481L59.3919 166.119L63.9983 179.152C89.6396 251.707 103.416 290.609 103.497 290.69C103.55 290.744 107.43 290.978 112.118 291.21C126.321 291.915 143.922 293.425 157.274 295.084C160.366 295.468 163.027 295.665 163.187 295.522C163.297 295.423 163.369 262.91 163.388 217.043L105.436 50.4309L105.408 66.1975L105.293 131.323L99.935 116.205C94.6995 101.432 91.2038 91.5531 70.1705 32.084C64.5148 16.0933 59.7155 2.53029 59.5051 1.94398L59.1223 0.87793H1.05007Z" fill="url(#paint1_radial_31_3)"/>
<path fill-rule="evenodd" clip-rule="evenodd" d="M1.05127 0.877949L59.3919 166.194V166.119L63.9983 179.152C89.6396 251.707 103.416 290.609 103.497 290.69C103.55 290.744 107.43 290.978 112.118 291.21C126.321 291.915 143.922 293.425 157.274 295.084C160.35 295.466 162.997 295.663 163.182 295.524L105.293 131.293V131.323L99.935 116.205C94.6995 101.432 91.2038 91.5531 70.1705 32.084C64.5148 16.0933 59.7155 2.53029 59.5051 1.94398L59.1223 0.87793L1.05127 0.877949Z" fill="#E50914"/>
<defs>
<radialGradient id="paint0_radial_31_3" cx="0" cy="0" r="1" gradientUnits="userSpaceOnUse" gradientTransform="translate(79.523 146.51) rotate(-19.0977) scale(36.7948 1347.76)">
<stop/>
<stop offset="1" stop-opacity="0"/>
</radialGradient>
<radialGradient id="paint1_radial_31_3" cx="0" cy="0" r="1" gradientUnits="userSpaceOnUse" gradientTransform="translate(79.523 146.51) rotate(-19.0977) scale(36.7948 1347.76)">
<stop/>
<stop offset="1" stop-opacity="0"/>
</radialGradient>
</defs>
</svg>
