<svg width="149" height="41" viewBox="0 0 148 41" fill="none" xmlns="http://www.w3.org/2000/svg">
<path d="M140.083 19.5408L147.999 40.5C145.666 40.1663 143.334 39.7489 140.958 39.374L136.499 27.7915L131.916 38.4167C129.667 38.0418 127.457 37.9156 125.208 37.6244L133.25 19.2909L125.957 0.5H132.708L136.791 10.999L141.167 0.5H147.999L140.083 19.5408ZM120.625 0.5H114.5V36.8333C116.5 36.9583 118.583 37.0408 120.625 37.2907V0.5ZM109.207 36.4159C103.625 36.041 98.0411 35.7085 92.3335 35.5823V0.5H98.5822V29.6661C102.166 29.7499 105.749 30.041 109.207 30.2073V36.4159ZM85.6663 14.7081V20.958H77.1256V35.1662H70.9582V0.5H88.4582V6.74988H77.1256V14.7081H85.6663ZM60.458 6.74988V35.4998C58.3747 35.4998 56.2502 35.4998 54.2081 35.5823V6.74988H47.7496V0.5H66.9579V6.74988H60.458ZM40.9998 21.2905C38.2504 21.2905 34.9998 21.2905 32.6666 21.4167V30.7084C36.3333 30.4572 40 30.166 43.7079 30.041V36.041L26.4167 37.4169V0.5H43.7079V6.74988H32.6666V15.1655C35.0836 15.1655 38.7915 15.0406 40.9998 15.0406V21.2905ZM6.37486 17.7912V39.6239C4.12535 39.8751 2.12454 40.1663 0 40.5V0.5H5.9587L14.0832 23.2088V0.5H20.3331V37.9156C18.1248 38.2917 15.8753 38.4167 13.4995 38.7491L6.37486 17.7912Z" fill="#E50914"/>
</svg>
