<svg width="96" height="96" viewBox="0 0 96 96" fill="none" xmlns="http://www.w3.org/2000/svg">
<path d="M48.81 95.713C75.32 95.713 96.81 91.838 96.81 87.057C96.81 82.277 75.32 78.402 48.81 78.402C22.3 78.402 0.809998 82.277 0.809998 87.057C0.809998 91.837 22.3 95.713 48.81 95.713Z" fill="url(#paint0_radial_2_131)"/>
<path d="M48.81 77.615C75.32 77.615 96.81 60.528 96.81 39.451C96.81 18.373 75.32 1.28699 48.81 1.28699C22.3 1.28699 0.809998 18.374 0.809998 39.45C0.809998 60.526 22.3 77.615 48.81 77.615Z" fill="url(#paint1_radial_2_131)"/>
<path fill-rule="evenodd" clip-rule="evenodd" d="M76.186 76.124C76.3618 75.6797 76.3986 75.1925 76.2916 74.7268C76.1845 74.2612 75.9387 73.839 75.5865 73.5161C75.2343 73.1932 74.7924 72.9848 74.3192 72.9184C73.846 72.8521 73.3638 72.931 72.9364 73.1446C72.5091 73.3582 72.1566 73.6965 71.9256 74.1148C71.6946 74.5331 71.5961 75.0116 71.643 75.4871C71.6898 75.9626 71.8799 76.4127 72.1881 76.7778C72.4963 77.1429 72.9081 77.4059 73.369 77.532C73.307 77.689 73.262 77.852 73.235 78.018C72.5115 78.4343 71.9828 79.1209 71.7651 79.9267C71.5474 80.7326 71.6585 81.5919 72.074 82.316C72.2798 82.6745 72.5542 82.9889 72.8816 83.2413C73.2089 83.4937 73.5828 83.6791 73.9819 83.787C74.381 83.8948 74.7974 83.9229 75.2073 83.8697C75.6172 83.8165 76.0127 83.6831 76.371 83.477C76.4325 84.0185 76.6335 84.5348 76.9545 84.9753C77.2754 85.4159 77.7052 85.7655 78.2018 85.9901C78.6984 86.2147 79.2448 86.3065 79.7876 86.2565C80.3303 86.2065 80.8507 86.0165 81.298 85.705C81.4489 86.0229 81.669 86.303 81.9422 86.5248C82.2153 86.7466 82.5347 86.9045 82.8767 86.987C83.2188 87.0695 83.575 87.0744 83.9193 87.0015C84.2635 86.9285 84.5871 86.7795 84.8663 86.5653C85.1455 86.3511 85.3732 86.0772 85.5329 85.7637C85.6926 85.4501 85.7801 85.1048 85.7891 84.753C85.7981 84.4012 85.7283 84.0519 85.5849 83.7306C85.4414 83.4093 85.2279 83.1241 84.96 82.896C85.5069 82.2977 85.802 81.5116 85.7838 80.7012C85.7656 79.8909 85.4355 79.1188 84.8623 78.5457C84.2891 77.9726 83.5169 77.6427 82.7065 77.6247C81.8962 77.6067 81.1101 77.9019 80.512 78.449C80.1933 78.0715 79.7641 77.8038 79.2849 77.6838C78.8057 77.5637 78.301 77.5974 77.842 77.78C77.7335 77.3839 77.5237 77.023 77.2334 76.7326C76.943 76.4422 76.582 76.2325 76.186 76.124ZM25.203 77.614C25.203 77.924 25.159 78.233 25.069 78.529C25.6717 78.6796 26.235 78.9582 26.7204 79.3458C27.2059 79.7335 27.6022 80.2211 27.8825 80.7755C28.1627 81.33 28.3203 81.9383 28.3446 82.5591C28.3688 83.1798 28.2591 83.7986 28.0229 84.3732C27.7868 84.9478 27.4296 85.4648 26.9759 85.8891C26.5221 86.3135 25.9823 86.6351 25.3931 86.8322C24.804 87.0294 24.1793 87.0973 23.5615 87.0316C22.9438 86.9658 22.3474 86.7677 21.813 86.451C21.3245 86.8441 20.716 87.058 20.089 87.057C19.612 87.058 19.143 86.934 18.729 86.699C18.5517 87.0885 18.2522 87.4095 17.8759 87.6133C17.4995 87.8171 17.067 87.8926 16.6439 87.8282C16.2208 87.7638 15.8303 87.5632 15.5316 87.2567C15.2329 86.9502 15.0424 86.5546 14.989 86.13C14.6332 86.2582 14.2518 86.2991 13.8769 86.2491C13.5021 86.1991 13.1447 86.0598 12.8349 85.8429C12.5251 85.6259 12.272 85.3377 12.0969 85.0025C11.9218 84.6673 11.8299 84.2949 11.8287 83.9167C11.8276 83.5385 11.9174 83.1656 12.0906 82.8294C12.2637 82.4931 12.5151 82.2034 12.8236 81.9847C13.1321 81.7659 13.4887 81.6245 13.8633 81.5723C14.2378 81.5202 14.6195 81.5588 14.976 81.685C14.9542 81.1814 15.0537 80.68 15.266 80.2228C15.4784 79.7657 15.7974 79.3663 16.1962 79.0581C16.5951 78.7499 17.0621 78.5419 17.558 78.4518C18.0539 78.3616 18.5642 78.3919 19.046 78.54C18.9129 78.107 18.8748 77.6505 18.9343 77.2014C18.9937 76.7524 19.1494 76.3215 19.3907 75.9382C19.6319 75.5548 19.9531 75.228 20.3322 74.9801C20.7113 74.7323 21.1394 74.5691 21.5873 74.5018C22.0352 74.4345 22.4924 74.4647 22.9276 74.5902C23.3628 74.7158 23.7658 74.9338 24.109 75.2293C24.4522 75.5248 24.7277 75.891 24.9165 76.3027C25.1053 76.7144 25.203 77.161 25.203 77.614Z" fill="url(#paint2_radial_2_131)"/>
<path fill-rule="evenodd" clip-rule="evenodd" d="M52.744 20.959C52.744 21.347 52.674 21.719 52.546 22.061C52.78 22.175 52.998 22.317 53.196 22.483C53.5114 21.9587 53.9728 21.5378 54.5237 21.2717C55.0747 21.0057 55.6913 20.906 56.298 20.985C56.6435 20.371 57.185 19.8906 57.8359 19.6209C58.4868 19.3512 59.2094 19.3077 59.8879 19.4974C60.5665 19.687 61.1618 20.099 61.5784 20.6671C61.9951 21.2353 62.209 21.9268 62.186 22.631C62.5953 22.737 62.9791 22.9243 63.3146 23.1816C63.6502 23.439 63.9305 23.7612 64.139 24.129C64.922 24.224 65.64 24.609 66.152 25.207C66.9243 24.8774 67.7818 24.8035 68.5991 24.9961C69.4163 25.1887 70.1506 25.6377 70.6945 26.2775C71.2384 26.9172 71.5633 27.7141 71.6219 28.5518C71.6805 29.3894 71.4695 30.2238 71.02 30.933C71.579 31.308 72.003 31.851 72.232 32.485C72.7081 31.8335 73.4163 31.3896 74.2103 31.2452C75.0042 31.1008 75.8233 31.2668 76.4984 31.7089C77.1735 32.1511 77.653 32.8356 77.8379 33.6211C78.0228 34.4066 77.899 35.2332 77.492 35.93C78.0259 35.9906 78.5354 36.1869 78.9719 36.5002C79.4084 36.8135 79.7575 37.2333 79.9858 37.7197C80.2141 38.2061 80.3141 38.7428 80.2762 39.2788C80.2383 39.8148 80.0638 40.3321 79.7694 40.7816C79.4749 41.231 79.0703 41.5976 78.594 41.8463C78.1177 42.0951 77.5857 42.2178 77.0486 42.2027C76.5115 42.1876 75.9872 42.0352 75.5257 41.7601C75.0642 41.485 74.6807 41.0963 74.412 40.631H25.202V39.423C24.6089 39.7651 23.9205 39.9046 23.241 39.8202C22.5616 39.7359 21.9281 39.4323 21.4367 38.9555C20.9454 38.4787 20.6228 37.8547 20.518 37.1781C20.4132 36.5014 20.5319 35.8091 20.856 35.206C20.2474 34.7119 19.845 34.0086 19.7275 33.2335C19.6101 32.4584 19.7861 31.6674 20.221 31.0152C20.656 30.3631 21.3186 29.8966 22.0793 29.7072C22.84 29.5178 23.644 29.619 24.334 29.991C24.6286 29.6274 25.0008 29.3341 25.4233 29.1327C25.8458 28.9313 26.308 28.8269 26.776 28.827C26.7758 28.3792 26.8711 27.9366 27.0557 27.5286C27.2402 27.1207 27.5097 26.7568 27.8461 26.4613C28.1825 26.1658 28.5781 25.9454 29.0064 25.815C29.4347 25.6846 29.886 25.6471 30.33 25.705C30.6411 25.1544 31.1109 24.7103 31.6782 24.4306C32.2454 24.1509 32.8838 24.0486 33.51 24.137C33.1257 23.4907 32.9855 22.7282 33.1148 21.9875C33.244 21.2468 33.6342 20.5768 34.2147 20.0989C34.7953 19.621 35.5277 19.3668 36.2794 19.3822C37.0312 19.3976 37.7526 19.6817 38.313 20.183C39.0084 20.124 39.7038 20.2976 40.2898 20.6766C40.8759 21.0557 41.3195 21.6186 41.551 22.277C41.961 22.001 42.431 21.827 42.922 21.767C43.2693 21.1533 43.8126 20.6739 44.4649 20.4059C45.1171 20.1379 45.8405 20.0967 46.519 20.289C46.6841 19.5301 47.124 18.859 47.754 18.4049C48.384 17.9507 49.1597 17.7454 49.9319 17.8285C50.7041 17.9116 51.4183 18.2773 51.9372 18.8552C52.4562 19.433 52.7441 20.1823 52.744 20.959Z" fill="url(#paint3_radial_2_131)"/>
<path opacity="0.6" d="M46.843 37.484C47.8247 37.484 48.7968 37.2907 49.7037 36.915C50.6107 36.5393 51.4348 35.9887 52.129 35.2945C52.8231 34.6003 53.3738 33.7762 53.7495 32.8693C54.1251 31.9623 54.3185 30.9902 54.3185 30.0085C54.3185 29.0268 54.1251 28.0547 53.7495 27.1478C53.3738 26.2408 52.8231 25.4167 52.129 24.7225C51.4348 24.0284 50.6107 23.4777 49.7037 23.1021C48.7968 22.7264 47.8247 22.533 46.843 22.533C44.8605 22.533 42.9592 23.3206 41.5574 24.7224C40.1555 26.1242 39.368 28.0255 39.368 30.008C39.368 31.9905 40.1555 33.8918 41.5574 35.2936C42.9592 36.6955 44.8605 37.484 46.843 37.484Z" fill="url(#paint4_radial_2_131)"/>
<path opacity="0.6" d="M44.482 32.762C45.8386 32.762 47.1396 32.2231 48.0989 31.2638C49.0581 30.3046 49.597 29.0036 49.597 27.647C49.597 26.2904 49.0581 24.9894 48.0989 24.0301C47.1396 23.0709 45.8386 22.532 44.482 22.532C43.1254 22.532 41.8244 23.0709 40.8652 24.0301C39.9059 24.9894 39.367 26.2904 39.367 27.647C39.367 29.0036 39.9059 30.3046 40.8652 31.2638C41.8244 32.2231 43.1254 32.762 44.482 32.762Z" fill="url(#paint5_radial_2_131)"/>
<path opacity="0.6" d="M42.908 36.697C44.2646 36.697 45.5656 36.1581 46.5248 35.1988C47.4841 34.2396 48.023 32.9386 48.023 31.582C48.023 30.2254 47.4841 28.9244 46.5248 27.9651C45.5656 27.0059 44.2646 26.467 42.908 26.467C41.5514 26.467 40.2504 27.0059 39.2911 27.9651C38.3319 28.9244 37.793 30.2254 37.793 31.582C37.793 32.9386 38.3319 34.2396 39.2911 35.1988C40.2504 36.1581 41.5514 36.697 42.908 36.697Z" fill="url(#paint6_radial_2_131)"/>
<path opacity="0.6" d="M27.958 39.057C29.3146 39.057 30.6156 38.5181 31.5749 37.5589C32.5341 36.5996 33.073 35.2986 33.073 33.942C33.073 32.5854 32.5341 31.2844 31.5749 30.3252C30.6156 29.3659 29.3146 28.827 27.958 28.827C26.6014 28.827 25.3004 29.3659 24.3412 30.3252C23.3819 31.2844 22.843 32.5854 22.843 33.942C22.843 35.2986 23.3819 36.5996 24.3412 37.5589C25.3004 38.5181 26.6014 39.057 27.958 39.057Z" fill="url(#paint7_radial_2_131)"/>
<path opacity="0.6" d="M31.105 36.697C32.4616 36.697 33.7626 36.1581 34.7218 35.1988C35.6811 34.2396 36.22 32.9386 36.22 31.582C36.22 30.2254 35.6811 28.9244 34.7218 27.9651C33.7626 27.0059 32.4616 26.467 31.105 26.467C29.7484 26.467 28.4474 27.0059 27.4881 27.9651C26.5289 28.9244 25.99 30.2254 25.99 31.582C25.99 32.9386 26.5289 34.2396 27.4881 35.1988C28.4474 36.1581 29.7484 36.697 31.105 36.697Z" fill="url(#paint8_radial_2_131)"/>
<path opacity="0.6" d="M31.105 38.27C31.8354 38.27 32.5359 37.9799 33.0524 37.4634C33.5688 36.9469 33.859 36.2464 33.859 35.516C33.859 34.7856 33.5688 34.0851 33.0524 33.5686C32.5359 33.0522 31.8354 32.762 31.105 32.762C30.3746 32.762 29.6741 33.0522 29.1576 33.5686C28.6411 34.0851 28.351 34.7856 28.351 35.516C28.351 36.2464 28.6411 36.9469 29.1576 37.4634C29.6741 37.9799 30.3746 38.27 31.105 38.27Z" fill="url(#paint9_radial_2_131)"/>
<path opacity="0.2" d="M74.384 36.697C75.1144 36.697 75.8149 36.4069 76.3314 35.8904C76.8479 35.3739 77.138 34.6734 77.138 33.943C77.138 33.2126 76.8479 32.5121 76.3314 31.9957C75.8149 31.4792 75.1144 31.189 74.384 31.189C73.6536 31.189 72.9531 31.4792 72.4366 31.9957C71.9202 32.5121 71.63 33.2126 71.63 33.943C71.63 34.6734 71.9202 35.3739 72.4366 35.8904C72.9531 36.4069 73.6536 36.697 74.384 36.697Z" fill="url(#paint10_radial_2_131)"/>
<path opacity="0.2" d="M77.531 39.844C78.0527 39.844 78.553 39.6367 78.9219 39.2679C79.2908 38.899 79.498 38.3987 79.498 37.877C79.498 37.3553 79.2908 36.855 78.9219 36.4861C78.553 36.1172 78.0527 35.91 77.531 35.91C77.0093 35.91 76.509 36.1172 76.1401 36.4861C75.7712 36.855 75.564 37.3553 75.564 37.877C75.564 38.3987 75.7712 38.899 76.1401 39.2679C76.509 39.6367 77.0093 39.844 77.531 39.844Z" fill="url(#paint11_radial_2_131)"/>
<path opacity="0.3" d="M73.597 40.631C74.5361 40.631 75.4368 40.2579 76.1009 39.5939C76.7649 38.9298 77.138 38.0291 77.138 37.09C77.138 36.1509 76.7649 35.2502 76.1009 34.5861C75.4368 33.9221 74.5361 33.549 73.597 33.549C72.6579 33.549 71.7572 33.9221 71.0931 34.5861C70.4291 35.2502 70.056 36.1509 70.056 37.09C70.056 38.0291 70.4291 38.9298 71.0931 39.5939C71.7572 40.2579 72.6579 40.631 73.597 40.631Z" fill="url(#paint12_radial_2_131)"/>
<path opacity="0.2" d="M59.433 24.893C59.7947 24.893 60.1528 24.8218 60.4869 24.6834C60.821 24.545 61.1246 24.3421 61.3804 24.0864C61.6361 23.8306 61.839 23.527 61.9774 23.1929C62.1158 22.8588 62.187 22.5007 62.187 22.139C62.187 21.7773 62.1158 21.4192 61.9774 21.0851C61.839 20.751 61.6361 20.4474 61.3804 20.1916C61.1246 19.9359 60.821 19.733 60.4869 19.5946C60.1528 19.4562 59.7947 19.385 59.433 19.385C58.7026 19.385 58.0021 19.6752 57.4856 20.1916C56.9692 20.7081 56.679 21.4086 56.679 22.139C56.679 22.8694 56.9692 23.5699 57.4856 24.0864C58.0021 24.6029 58.7026 24.893 59.433 24.893Z" fill="url(#paint13_radial_2_131)"/>
<path opacity="0.2" d="M49.203 21.746C49.7248 21.746 50.2253 21.5387 50.5942 21.1697C50.9632 20.8007 51.1705 20.3003 51.1705 19.7785C51.1705 19.2567 50.9632 18.7562 50.5942 18.3872C50.2253 18.0183 49.7248 17.811 49.203 17.811C48.6812 17.811 48.1807 18.0183 47.8118 18.3872C47.4428 18.7562 47.2355 19.2567 47.2355 19.7785C47.2355 20.3003 47.4428 20.8007 47.8118 21.1697C48.1807 21.5387 48.6812 21.746 49.203 21.746Z" fill="url(#paint14_radial_2_131)"/>
<path opacity="0.2" d="M35.826 24.107C36.3478 24.107 36.8482 23.8997 37.2172 23.5307C37.5862 23.1618 37.7935 22.6613 37.7935 22.1395C37.7935 21.6177 37.5862 21.1172 37.2172 20.7483C36.8482 20.3793 36.3478 20.172 35.826 20.172C35.3042 20.172 34.8037 20.3793 34.4348 20.7483C34.0658 21.1172 33.8585 21.6177 33.8585 22.1395C33.8585 22.6613 34.0658 23.1618 34.4348 23.5307C34.8037 23.8997 35.3042 24.107 35.826 24.107Z" fill="url(#paint15_radial_2_131)"/>
<path opacity="0.2" d="M62.58 33.55C63.9366 33.55 65.2376 33.0111 66.1968 32.0519C67.1561 31.0926 67.695 29.7916 67.695 28.435C67.695 27.0784 67.1561 25.7774 66.1968 24.8182C65.2376 23.8589 63.9366 23.32 62.58 23.32C61.2234 23.32 59.9224 23.8589 58.9631 24.8182C58.0039 25.7774 57.465 27.0784 57.465 28.435C57.465 29.7916 58.0039 31.0926 58.9631 32.0519C59.9224 33.0111 61.2234 33.55 62.58 33.55Z" fill="url(#paint16_radial_2_131)"/>
<path opacity="0.6" d="M57.86 31.975C58.5377 31.9845 59.2104 31.8592 59.8393 31.6064C60.4681 31.3536 61.0404 30.9784 61.523 30.5025C62.0056 30.0267 62.3887 29.4596 62.6503 28.8344C62.9118 28.2092 63.0465 27.5382 63.0465 26.8605C63.0465 26.1828 62.9118 25.5118 62.6503 24.8866C62.3887 24.2613 62.0056 23.6943 61.523 23.2184C61.0404 22.7426 60.4681 22.3673 59.8393 22.1146C59.2104 21.8618 58.5377 21.7365 57.86 21.746C56.5034 21.746 55.2024 22.2849 54.2431 23.2441C53.2839 24.2034 52.745 25.5044 52.745 26.861C52.745 28.2176 53.2839 29.5186 54.2431 30.4778C55.2024 31.4371 56.5034 31.975 57.86 31.975Z" fill="url(#paint17_radial_2_131)"/>
<path opacity="0.2" d="M60.22 34.336C61.5766 34.336 62.8776 33.7971 63.8368 32.8379C64.7961 31.8786 65.335 30.5776 65.335 29.221C65.335 27.8644 64.7961 26.5634 63.8368 25.6042C62.8776 24.6449 61.5766 24.106 60.22 24.106C58.8634 24.106 57.5624 24.6449 56.6031 25.6042C55.6439 26.5634 55.105 27.8644 55.105 29.221C55.105 30.5776 55.6439 31.8786 56.6031 32.8379C57.5624 33.7971 58.8634 34.336 60.22 34.336Z" fill="url(#paint18_radial_2_131)"/>
<path d="M19.695 37.484H64.548L60.613 89.418H22.843L19.695 37.484Z" fill="url(#paint19_linear_2_131)"/>
<path d="M72.417 86.27L60.613 89.418L64.548 37.484L79.498 41.418L72.417 86.27Z" fill="url(#paint20_linear_2_131)"/>
<path fill-rule="evenodd" clip-rule="evenodd" d="M47.14 47.833L47.394 37.483H38.006L38.11 47.323C36.4712 47.6893 34.8982 48.3048 33.446 49.148L33.119 37.484H23.712L26.639 89.418H34.582L34.265 78.198C35.5886 78.8692 36.9971 79.358 38.452 79.651L38.557 89.418H46.115L46.365 79.317C47.6497 78.9418 48.8838 78.4112 50.04 77.737L49.67 89.418H57.991L60.732 37.484H51.315L50.927 49.721C49.7508 48.9314 48.4776 48.2968 47.139 47.833H47.14ZM63.218 88.723L66.168 87.937L72.013 39.449L67.512 38.263L63.218 88.723ZM67.848 87.489L70.165 86.871L78.003 41.025L73.628 39.873L67.848 87.489ZM54.317 63.45C54.317 70.403 48.681 76.04 41.727 76.04C34.773 76.04 29.137 70.404 29.137 63.45C29.137 56.496 34.773 50.86 41.727 50.86C48.681 50.86 54.317 56.496 54.317 63.45ZM47.145 70.245L45.45 64.76L49.558 61.713C49.6217 61.6658 49.6695 61.6003 49.695 61.5252C49.7206 61.4502 49.7226 61.3691 49.7009 61.2928C49.6791 61.2166 49.6347 61.1488 49.5734 61.0984C49.5122 61.0481 49.437 61.0176 49.358 61.011C47.6329 60.8718 45.9042 60.7804 44.174 60.737L42.098 55.025C42.0703 54.9492 42.0199 54.8837 41.9537 54.8375C41.8875 54.7912 41.8087 54.7664 41.728 54.7664C41.6473 54.7664 41.5685 54.7912 41.5023 54.8375C41.4361 54.8837 41.3858 54.9492 41.358 55.025L39.282 60.737C37.522 60.781 35.792 60.874 34.097 61.011C34.0181 61.0179 33.9433 61.0487 33.8823 61.0992C33.8213 61.1496 33.7771 61.2175 33.7557 61.2937C33.7342 61.3699 33.7364 61.4508 33.762 61.5257C33.7876 61.6006 33.8354 61.6659 33.899 61.713L38.006 64.759L36.31 70.244C36.2859 70.3221 36.2867 70.4056 36.3122 70.4832C36.3377 70.5608 36.3866 70.6285 36.4523 70.677C36.518 70.7256 36.5971 70.7525 36.6787 70.7541C36.7604 70.7557 36.8405 70.7319 36.908 70.686L41.728 67.405L46.548 70.686C46.6155 70.7321 46.6956 70.7562 46.7773 70.7547C46.859 70.7533 46.9382 70.7265 47.004 70.6781C47.0698 70.6296 47.1189 70.5619 47.1445 70.4844C47.1701 70.4068 47.171 70.3231 47.147 70.245H47.145Z" fill="url(#paint21_linear_2_131)"/>
<path opacity="0.4" d="M17.728 83.123C18.2497 83.123 18.75 82.9158 19.1189 82.5469C19.4878 82.178 19.695 81.6777 19.695 81.156C19.695 80.6343 19.4878 80.134 19.1189 79.7651C18.75 79.3963 18.2497 79.189 17.728 79.189C17.2063 79.189 16.706 79.3963 16.3371 79.7651C15.9682 80.134 15.761 80.6343 15.761 81.156C15.761 81.6777 15.9682 82.178 16.3371 82.5469C16.706 82.9158 17.2063 83.123 17.728 83.123Z" fill="url(#paint22_radial_2_131)"/>
<path opacity="0.4" d="M14.58 85.484C15.1018 85.484 15.6023 85.2767 15.9712 84.9077C16.3402 84.5388 16.5475 84.0383 16.5475 83.5165C16.5475 82.9947 16.3402 82.4943 15.9712 82.1253C15.6023 81.7563 15.1018 81.549 14.58 81.549C14.0582 81.549 13.5577 81.7563 13.1888 82.1253C12.8198 82.4943 12.6125 82.9947 12.6125 83.5165C12.6125 84.0383 12.8198 84.5388 13.1888 84.9077C13.5577 85.2767 14.0582 85.484 14.58 85.484Z" fill="url(#paint23_radial_2_131)"/>
<path opacity="0.4" d="M16.941 85.484C17.4628 85.484 17.9632 85.2767 18.3322 84.9077C18.7012 84.5388 18.9085 84.0383 18.9085 83.5165C18.9085 82.9947 18.7012 82.4943 18.3322 82.1253C17.9632 81.7563 17.4628 81.549 16.941 81.549C16.4192 81.549 15.9187 81.7563 15.5498 82.1253C15.1808 82.4943 14.9735 82.9947 14.9735 83.5165C14.9735 84.0383 15.1808 84.5388 15.5498 84.9077C15.9187 85.2767 16.4192 85.484 16.941 85.484Z" fill="url(#paint24_radial_2_131)"/>
<path opacity="0.4" d="M20.089 87.057C20.3473 87.057 20.6031 87.0061 20.8417 86.9073C21.0804 86.8084 21.2972 86.6635 21.4799 86.4809C21.6625 86.2982 21.8074 86.0814 21.9063 85.8427C22.0051 85.6041 22.056 85.3483 22.056 85.09C22.056 84.8317 22.0051 84.5759 21.9063 84.3372C21.8074 84.0986 21.6625 83.8818 21.4799 83.6991C21.2972 83.5165 21.0804 83.3716 20.8417 83.2727C20.6031 83.1739 20.3473 83.123 20.089 83.123C19.5673 83.123 19.067 83.3302 18.6981 83.6991C18.3292 84.068 18.122 84.5683 18.122 85.09C18.122 85.6117 18.3292 86.112 18.6981 86.4809C19.067 86.8497 19.5673 87.057 20.089 87.057Z" fill="url(#paint25_radial_2_131)"/>
<path opacity="0.4" d="M83.04 86.27C83.5617 86.27 84.062 86.0628 84.4309 85.6939C84.7998 85.325 85.007 84.8247 85.007 84.303C85.007 83.7813 84.7998 83.281 84.4309 82.9121C84.062 82.5432 83.5617 82.336 83.04 82.336C82.5183 82.336 82.018 82.5432 81.6491 82.9121C81.2802 83.281 81.073 83.7813 81.073 84.303C81.073 84.8247 81.2802 85.325 81.6491 85.6939C82.018 86.0628 82.5183 86.27 83.04 86.27Z" fill="url(#paint26_radial_2_131)"/>
<path opacity="0.4" d="M82.646 83.123C83.272 83.123 83.8724 82.8743 84.3151 82.4316C84.7578 81.9889 85.0065 81.3885 85.0065 80.7625C85.0065 80.1364 84.7578 79.536 84.3151 79.0934C83.8724 78.6507 83.272 78.402 82.646 78.402C82.0199 78.402 81.4195 78.6507 80.9769 79.0934C80.5342 79.536 80.2855 80.1364 80.2855 80.7625C80.2855 81.3885 80.5342 81.9889 80.9769 82.4316C81.4195 82.8743 82.0199 83.123 82.646 83.123Z" fill="url(#paint27_radial_2_131)"/>
<path opacity="0.4" d="M78.712 83.123C79.338 83.123 79.9385 82.8743 80.3811 82.4316C80.8238 81.9889 81.0725 81.3885 81.0725 80.7625C81.0725 80.1364 80.8238 79.536 80.3811 79.0934C79.9385 78.6507 79.338 78.402 78.712 78.402C78.086 78.402 77.4856 78.6507 77.0429 79.0934C76.6002 79.536 76.3515 80.1364 76.3515 80.7625C76.3515 81.3885 76.6002 81.9889 77.0429 82.4316C77.4856 82.8743 78.086 83.123 78.712 83.123Z" fill="url(#paint28_radial_2_131)"/>
<path opacity="0.4" d="M75.957 82.336C76.6874 82.336 77.3879 82.0458 77.9044 81.5294C78.4209 81.0129 78.711 80.3124 78.711 79.582C78.711 78.8516 78.4209 78.1511 77.9044 77.6346C77.3879 77.1182 76.6874 76.828 75.957 76.828C75.2266 76.828 74.5261 77.1182 74.0096 77.6346C73.4932 78.1511 73.203 78.8516 73.203 79.582C73.203 80.3124 73.4932 81.0129 74.0096 81.5294C74.5261 82.0458 75.2266 82.336 75.957 82.336Z" fill="url(#paint29_radial_2_131)"/>
<path opacity="0.4" d="M19.302 85.484C20.0325 85.484 20.7332 85.1938 21.2497 84.6772C21.7663 84.1606 22.0565 83.46 22.0565 82.7295C22.0565 81.9989 21.7663 81.2983 21.2497 80.7818C20.7332 80.2652 20.0325 79.975 19.302 79.975C18.5715 79.975 17.8708 80.2652 17.3543 80.7818C16.8377 81.2983 16.5475 81.9989 16.5475 82.7295C16.5475 83.46 16.8377 84.1606 17.3543 84.6772C17.8708 85.1938 18.5715 85.484 19.302 85.484Z" fill="url(#paint30_radial_2_131)"/>
<path fill-rule="evenodd" clip-rule="evenodd" d="M74.777 79.975C75.403 79.9752 76.0033 80.2241 76.4458 80.6669C76.8884 81.1096 77.137 81.71 77.137 82.336C77.5881 82.3357 78.034 82.4324 78.4445 82.6196C78.8549 82.8067 79.2204 83.0798 79.5161 83.4205C79.8118 83.7612 80.0308 84.1614 80.1583 84.5941C80.2858 85.0268 80.3189 85.4819 80.2552 85.9285C80.1915 86.3751 80.0325 86.8027 79.7891 87.1825C79.5457 87.5623 79.2236 87.8854 78.8444 88.1298C78.4653 88.3742 78.038 88.5343 77.5916 88.5992C77.1452 88.6641 76.69 88.6323 76.257 88.506C76.0936 89.0751 75.7222 89.562 75.2165 89.8701C74.7108 90.1782 74.1078 90.2849 73.5271 90.1691C72.9464 90.0533 72.4304 89.7234 72.0816 89.2449C71.7328 88.7664 71.5766 88.1743 71.644 87.586C71.107 87.3347 70.6654 86.917 70.3847 86.3947C70.1041 85.8725 69.9994 85.2736 70.0862 84.6872C70.173 84.1007 70.4467 83.5579 70.8666 83.1393C71.2865 82.7208 71.8302 82.4489 72.417 82.364V82.336C72.417 81.7101 72.6656 81.1098 73.1082 80.6672C73.5508 80.2246 74.1511 79.975 74.777 79.975Z" fill="url(#paint31_radial_2_131)"/>
<defs>
<radialGradient id="paint0_radial_2_131" cx="0" cy="0" r="1" gradientUnits="userSpaceOnUse" gradientTransform="translate(48.81 87.104) rotate(-90) scale(8.70201 48.2567)">
<stop offset="0.286" stop-color="#7D2889"/>
<stop offset="0.724" stop-color="#FF66D9" stop-opacity="0.41"/>
<stop offset="1" stop-color="white" stop-opacity="0"/>
</radialGradient>
<radialGradient id="paint1_radial_2_131" cx="0" cy="0" r="1" gradientUnits="userSpaceOnUse" gradientTransform="translate(48.81 39.655) rotate(-90) scale(38.3681 48.2567)">
<stop stop-color="#FFCA45"/>
<stop offset="0.453" stop-color="#FF66D9" stop-opacity="0.36"/>
<stop offset="1" stop-color="white" stop-opacity="0"/>
</radialGradient>
<radialGradient id="paint2_radial_2_131" cx="0" cy="0" r="1" gradientUnits="userSpaceOnUse" gradientTransform="translate(47.63 79.976) rotate(180) scale(37.7705 37.7705)">
<stop offset="0.432" stop-color="#FF8B54"/>
<stop offset="0.76" stop-color="#FFBB8D"/>
<stop offset="1" stop-color="#F9DDD1"/>
</radialGradient>
<radialGradient id="paint3_radial_2_131" cx="0" cy="0" r="1" gradientUnits="userSpaceOnUse" gradientTransform="translate(48.417 28.434) rotate(-90) scale(10.623 28.257)">
<stop offset="0.302" stop-color="#F9DDD1"/>
<stop offset="0.674" stop-color="#FFBB8D"/>
<stop offset="1" stop-color="#FF8B54"/>
</radialGradient>
<radialGradient id="paint4_radial_2_131" cx="0" cy="0" r="1" gradientUnits="userSpaceOnUse" gradientTransform="translate(46.842 30.448) rotate(90) scale(7.03568)">
<stop offset="0.375" stop-color="#FFF4EB"/>
<stop offset="1" stop-color="#FFF3EB" stop-opacity="0"/>
</radialGradient>
<radialGradient id="paint5_radial_2_131" cx="0" cy="0" r="1" gradientUnits="userSpaceOnUse" gradientTransform="translate(44.482 27.948) rotate(90) scale(4.81389)">
<stop offset="0.375" stop-color="#FFF4EB"/>
<stop offset="1" stop-color="#FFF3EB" stop-opacity="0"/>
</radialGradient>
<radialGradient id="paint6_radial_2_131" cx="0" cy="0" r="1" gradientUnits="userSpaceOnUse" gradientTransform="translate(42.908 31.882) rotate(90) scale(4.81389)">
<stop offset="0.375" stop-color="#FFF4EB"/>
<stop offset="1" stop-color="#FFF3EB" stop-opacity="0"/>
</radialGradient>
<radialGradient id="paint7_radial_2_131" cx="0" cy="0" r="1" gradientUnits="userSpaceOnUse" gradientTransform="translate(27.957 34.243) rotate(90) scale(4.81389)">
<stop offset="0.375" stop-color="#FFF4EB"/>
<stop offset="1" stop-color="#FFF3EB" stop-opacity="0"/>
</radialGradient>
<radialGradient id="paint8_radial_2_131" cx="0" cy="0" r="1" gradientUnits="userSpaceOnUse" gradientTransform="translate(31.105 31.883) rotate(90) scale(4.81389)">
<stop offset="0.375" stop-color="#FFF4EB"/>
<stop offset="1" stop-color="#FFF3EB" stop-opacity="0"/>
</radialGradient>
<radialGradient id="paint9_radial_2_131" cx="0" cy="0" r="1" gradientUnits="userSpaceOnUse" gradientTransform="translate(31.105 35.679) rotate(90) scale(2.59209)">
<stop offset="0.375" stop-color="#FFF4EB"/>
<stop offset="1" stop-color="#FFF3EB" stop-opacity="0"/>
</radialGradient>
<radialGradient id="paint10_radial_2_131" cx="0" cy="0" r="1" gradientUnits="userSpaceOnUse" gradientTransform="translate(74.385 34.105) rotate(90) scale(2.59209 2.59209)">
<stop offset="0.375" stop-color="#FFF4EB"/>
<stop offset="1" stop-color="#FFF3EB" stop-opacity="0"/>
</radialGradient>
<radialGradient id="paint11_radial_2_131" cx="0" cy="0" r="1" gradientUnits="userSpaceOnUse" gradientTransform="translate(77.531 37.993) rotate(90) scale(1.85149 1.85149)">
<stop offset="0.375" stop-color="#FFF4EB"/>
<stop offset="1" stop-color="#FFF3EB" stop-opacity="0"/>
</radialGradient>
<radialGradient id="paint12_radial_2_131" cx="0" cy="0" r="1" gradientUnits="userSpaceOnUse" gradientTransform="translate(73.596 37.298) rotate(90) scale(3.33269)">
<stop offset="0.375" stop-color="#FFF4EB"/>
<stop offset="1" stop-color="#FFF3EB" stop-opacity="0"/>
</radialGradient>
<radialGradient id="paint13_radial_2_131" cx="0" cy="0" r="1" gradientUnits="userSpaceOnUse" gradientTransform="translate(59.432 22.302) rotate(90) scale(2.59209)">
<stop offset="0.375" stop-color="#FFF4EB"/>
<stop offset="1" stop-color="#FFF3EB" stop-opacity="0"/>
</radialGradient>
<radialGradient id="paint14_radial_2_131" cx="0" cy="0" r="1" gradientUnits="userSpaceOnUse" gradientTransform="translate(49.204 19.894) rotate(90) scale(1.8515)">
<stop offset="0.375" stop-color="#FFF4EB"/>
<stop offset="1" stop-color="#FFF3EB" stop-opacity="0"/>
</radialGradient>
<radialGradient id="paint15_radial_2_131" cx="0" cy="0" r="1" gradientUnits="userSpaceOnUse" gradientTransform="translate(35.826 22.256) rotate(90) scale(1.85149)">
<stop offset="0.375" stop-color="#FFF4EB"/>
<stop offset="1" stop-color="#FFF3EB" stop-opacity="0"/>
</radialGradient>
<radialGradient id="paint16_radial_2_131" cx="0" cy="0" r="1" gradientUnits="userSpaceOnUse" gradientTransform="translate(62.581 28.735) rotate(90) scale(4.81389 4.81389)">
<stop offset="0.375" stop-color="#FFF4EB"/>
<stop offset="1" stop-color="#FFF3EB" stop-opacity="0"/>
</radialGradient>
<radialGradient id="paint17_radial_2_131" cx="0" cy="0" r="1" gradientUnits="userSpaceOnUse" gradientTransform="translate(57.859 27.161) rotate(90) scale(4.81389)">
<stop offset="0.375" stop-color="#FFF4EB"/>
<stop offset="1" stop-color="#FFF3EB" stop-opacity="0"/>
</radialGradient>
<radialGradient id="paint18_radial_2_131" cx="0" cy="0" r="1" gradientUnits="userSpaceOnUse" gradientTransform="translate(60.22 29.522) rotate(90) scale(4.81389 4.81389)">
<stop offset="0.375" stop-color="#FFF4EB"/>
<stop offset="1" stop-color="#FFF3EB" stop-opacity="0"/>
</radialGradient>
<linearGradient id="paint19_linear_2_131" x1="60.613" y1="89.418" x2="34.574" y2="21.546" gradientUnits="userSpaceOnUse">
<stop stop-color="#E0B1CC"/>
<stop offset="0.431" stop-color="#FFF1F1"/>
<stop offset="1" stop-color="#FFC9A5"/>
</linearGradient>
<linearGradient id="paint20_linear_2_131" x1="60.613" y1="53.615" x2="84.22" y2="53.615" gradientUnits="userSpaceOnUse">
<stop stop-color="#D16AE9"/>
<stop offset="1" stop-color="#FF661D"/>
</linearGradient>
<linearGradient id="paint21_linear_2_131" x1="18.921" y1="37.484" x2="75.946" y2="86.121" gradientUnits="userSpaceOnUse">
<stop stop-color="#FF661D"/>
<stop offset="0.5" stop-color="#CE3A00"/>
<stop offset="1" stop-color="#A60A5E"/>
</linearGradient>
<radialGradient id="paint22_radial_2_131" cx="0" cy="0" r="1" gradientUnits="userSpaceOnUse" gradientTransform="translate(17.728 81.272) rotate(90) scale(1.8515)">
<stop offset="0.375" stop-color="#F9DDD1"/>
<stop offset="1" stop-color="#FFF3EB" stop-opacity="0"/>
</radialGradient>
<radialGradient id="paint23_radial_2_131" cx="0" cy="0" r="1" gradientUnits="userSpaceOnUse" gradientTransform="translate(14.581 83.633) rotate(90) scale(1.8515 1.8515)">
<stop offset="0.375" stop-color="#F9DDD1"/>
<stop offset="1" stop-color="#FFF3EB" stop-opacity="0"/>
</radialGradient>
<radialGradient id="paint24_radial_2_131" cx="0" cy="0" r="1" gradientUnits="userSpaceOnUse" gradientTransform="translate(16.942 83.632) rotate(90) scale(1.8515)">
<stop offset="0.375" stop-color="#F9DDD1"/>
<stop offset="1" stop-color="#FFF3EB" stop-opacity="0"/>
</radialGradient>
<radialGradient id="paint25_radial_2_131" cx="0" cy="0" r="1" gradientUnits="userSpaceOnUse" gradientTransform="translate(20.089 85.207) rotate(90) scale(1.85149)">
<stop offset="0.375" stop-color="#F9DDD1"/>
<stop offset="1" stop-color="#FFF3EB" stop-opacity="0"/>
</radialGradient>
<radialGradient id="paint26_radial_2_131" cx="0" cy="0" r="1" gradientUnits="userSpaceOnUse" gradientTransform="translate(83.04 84.42) rotate(90) scale(1.85149)">
<stop offset="0.375" stop-color="#F9DDD1"/>
<stop offset="1" stop-color="#FFF3EB" stop-opacity="0"/>
</radialGradient>
<radialGradient id="paint27_radial_2_131" cx="0" cy="0" r="1" gradientUnits="userSpaceOnUse" gradientTransform="translate(82.646 80.9) rotate(90) scale(2.2218)">
<stop offset="0.375" stop-color="#F9DDD1"/>
<stop offset="1" stop-color="#FFF3EB" stop-opacity="0"/>
</radialGradient>
<radialGradient id="paint28_radial_2_131" cx="0" cy="0" r="1" gradientUnits="userSpaceOnUse" gradientTransform="translate(78.711 80.901) rotate(90) scale(2.2218)">
<stop offset="0.375" stop-color="#F9DDD1"/>
<stop offset="1" stop-color="#FFF3EB" stop-opacity="0"/>
</radialGradient>
<radialGradient id="paint29_radial_2_131" cx="0" cy="0" r="1" gradientUnits="userSpaceOnUse" gradientTransform="translate(75.958 79.744) rotate(90) scale(2.5921 2.5921)">
<stop offset="0.375" stop-color="#F9DDD1"/>
<stop offset="1" stop-color="#FFF3EB" stop-opacity="0"/>
</radialGradient>
<radialGradient id="paint30_radial_2_131" cx="0" cy="0" r="1" gradientUnits="userSpaceOnUse" gradientTransform="translate(19.302 82.892) rotate(90) scale(2.5921 2.5921)">
<stop offset="0.375" stop-color="#F9DDD1"/>
<stop offset="1" stop-color="#FFF3EB" stop-opacity="0"/>
</radialGradient>
<radialGradient id="paint31_radial_2_131" cx="0" cy="0" r="1" gradientUnits="userSpaceOnUse" gradientTransform="translate(77.1381 85.0904) rotate(111.038) scale(5.48002)">
<stop stop-color="#FDF7F2"/>
<stop offset="1" stop-color="#FFD8BD"/>
</radialGradient>
</defs>
</svg>
