<svg width="17" height="17" viewBox="0 0 17 17" fill="none" xmlns="http://www.w3.org/2000/svg">
<g clip-path="url(#clip0_2_217)">
<path fill-rule="evenodd" clip-rule="evenodd" d="M8.39001 15C8.62035 15 9.23267 14.7743 9.8768 13.486C10.1529 12.9337 10.3897 12.2621 10.5648 11.5H6.21521C6.39028 12.2621 6.62708 12.9337 6.90322 13.486C7.54735 14.7743 8.15968 15 8.39001 15ZM5.96763 10C5.91717 9.52077 5.89001 9.01911 5.89001 8.5C5.89001 7.98089 5.91717 7.47923 5.96763 7H10.8124C10.8628 7.47923 10.89 7.98089 10.89 8.5C10.89 9.01911 10.8628 9.52077 10.8124 10H5.96763ZM12.0992 11.5C11.8722 12.6217 11.5217 13.617 11.0814 14.4184C12.4037 13.8161 13.4887 12.7837 14.1578 11.5H12.0992ZM14.7161 10H12.3198C12.3659 9.51412 12.39 9.01269 12.39 8.5C12.39 7.98731 12.3659 7.48588 12.3198 7H14.7161C14.8298 7.48152 14.89 7.98373 14.89 8.5C14.89 9.01627 14.8298 9.51848 14.7161 10ZM4.46021 10H2.06394C1.9502 9.51848 1.89001 9.01627 1.89001 8.5C1.89001 7.98373 1.9502 7.48152 2.06394 7H4.46021C4.41412 7.48588 4.39001 7.98731 4.39001 8.5C4.39001 9.01269 4.41412 9.51412 4.46021 10ZM2.62222 11.5H4.68077C4.9078 12.6217 5.25833 13.617 5.69865 14.4184C4.37636 13.8161 3.29129 12.7837 2.62222 11.5ZM6.21521 5.5H10.5648C10.3897 4.73793 10.1529 4.06626 9.8768 3.51397C9.23267 2.22571 8.62035 2 8.39001 2C8.15968 2 7.54735 2.22571 6.90322 3.51397C6.62708 4.06626 6.39028 4.73793 6.21521 5.5ZM12.0992 5.5H14.1578C13.4887 4.21627 12.4037 3.18389 11.0814 2.58162C11.5217 3.38302 11.8722 4.3783 12.0992 5.5ZM5.69865 2.58162C5.25833 3.38302 4.9078 4.3783 4.68077 5.5H2.62222C3.29129 4.21628 4.37636 3.18389 5.69865 2.58162ZM8.39001 0.5C12.8083 0.5 16.39 4.08172 16.39 8.5C16.39 12.9183 12.8083 16.5 8.39001 16.5C3.97173 16.5 0.390015 12.9183 0.390015 8.5C0.390015 4.08172 3.97173 0.5 8.39001 0.5Z" fill="white"/>
</g>
<defs>
<clipPath id="clip0_2_217">
<rect width="16" height="16" fill="white" transform="translate(0.390015 0.5)"/>
</clipPath>
</defs>
</svg>
